<!--?xml version="1.0" encoding="utf-8"?-->
<!-- Generator: Adobe Illustrator 15.1.0, SVG Export Plug-In . SVG Version: 6.00 Build 0)  -->

<svg version="1.1" id="_x32_" xmlns="http://www.w3.org/2000/svg" xmlns:xlink="http://www.w3.org/1999/xlink" x="0px" y="0px" width="512px" height="512px" viewBox="0 0 512 512" style="width: 256px; height: 256px; opacity: 1;" xml:space="preserve">
<style type="text/css">

	.st0{fill:#4B4B4B;}

</style>
<g>
	<path class="st0" d="M180.844,405.328l-0.016-0.016c0,0,0,0-0.016,0L180.844,405.328z" style="fill: rgb(75, 75, 75);"></path>
	<path class="st0" d="M512,303.688c0-37.594-22.656-69.844-55.031-83.969l-22.406-81.141c-13.594-49.266-58.406-83.359-109.5-83.359
		H186.938c-51.094,0-95.906,34.094-109.5,83.375l-22.375,81.125C22.656,233.844,0,266.094,0,303.688
		c0,40.094,25.781,74.094,61.656,86.531h-1.375v41.906c0,13.625,11.031,24.656,24.688,24.656H131
		c13.641,0,24.688-11.031,24.688-24.656v-36.781H174c1.688,3.688,3.953,7.109,6.828,9.969c5.703,5.688,13.531,9.281,22.109,9.813
		l0.531,0.188h1.5H205h102h0.031l0.813-0.031v-0.047c9.078-0.234,17.375-3.953,23.344-9.922c2.875-2.844,5.125-6.266,6.813-9.969
		h18.313v36.781c0.016,13.625,11.063,24.656,24.688,24.656h46.063c13.625,0,24.656-11.031,24.656-24.656v-41.906h-1.375
		C486.203,377.781,512,343.781,512,303.688z M139.688,432.125c0,4.781-3.891,8.656-8.688,8.656H84.969
		c-4.813,0-8.688-3.875-8.688-8.656v-38.188c5,0.844,10.125,1.406,15.375,1.406h48.031V432.125z M435.719,432.125
		c0,4.781-3.875,8.656-8.656,8.656H381c-4.781,0-8.672-3.891-8.688-8.656v-36.781h48.031c5.25,0,10.375-0.563,15.375-1.406V432.125z
		 M420.344,379.344h-94.188l-1.5,6.094c-0.813,3.313-2.531,6.313-4.781,8.563c-3.25,3.25-7.875,5.328-12.844,5.313H307H205l0,0
		h-0.031c-4.969,0-9.594-2.063-12.844-5.313v-0.016c-2.25-2.234-3.969-5.234-4.781-8.547l-1.5-6.094H91.656
		c-20.906-0.016-39.781-8.469-53.5-22.172C24.469,343.469,16,324.594,16,303.688c0-32.25,20.188-59.766,48.594-70.672l3.781-1.453
		l24.5-88.719c11.656-42.313,50.156-71.625,94.063-71.625h138.125c43.906,0,82.406,29.313,94.094,71.625l24.484,88.719l3.766,1.453
		C475.813,243.938,496,271.438,496,303.688c0,20.906-8.453,39.781-22.156,53.484C460.125,370.875,441.266,379.328,420.344,379.344z" style="fill: rgb(75, 75, 75);"></path>
	<polygon class="st0" points="121.5,181.75 121.5,181.719 121.5,181.719 	" style="fill: rgb(75, 75, 75);"></polygon>
	<path class="st0" d="M388.156,193.938c1.875-2.469,2.859-5.469,2.844-8.469c0.016-1.25-0.156-2.5-0.484-3.719l-9.391-34.031
		c-8.188-29.563-35.219-50.156-65.906-50.188H196.781c-30.656,0.031-57.719,20.625-65.906,50.188l-9.375,34
		c-0.344,1.25-0.5,2.5-0.5,3.75c-0.016,3.031,0.969,6,2.844,8.453v0.016c2.656,3.469,6.781,5.5,11.125,5.5h242.063
		C381.375,199.438,385.516,197.406,388.156,193.938z M378.594,186.688l-1.563,0.75H134.969l-1.563-0.781L133,185.469l0.063-0.5
		v-0.031l9.391-34.031c6.703-24.328,29.109-41.375,54.328-41.375h118.438c25.25,0,47.625,17.047,54.344,41.375l9.375,34.031
		l0.078,0.531L378.594,186.688z" style="fill: rgb(75, 75, 75);"></path>
	<path class="st0" d="M305.906,331.188l-0.094-0.078c-1.375-1.422-3.813-2.516-6.094-2.453h-87.438
		c-2.297-0.063-4.719,1.063-6.094,2.453l-0.094,0.078l-0.125,0.125c-1.344,1.297-2.5,3.813-2.438,6.031v0.063v40.344v0.063
		c-0.063,2.219,1.063,4.719,2.531,6.109l0.063,0.047l0.031,0.031c1.313,1.375,3.781,2.563,6.125,2.5h87.438
		c2.313,0.063,4.781-1.109,6.125-2.5l0.063-0.063c1.531-1.406,2.594-3.906,2.578-6.063v-0.125v-40.344v-0.125
		c0.047-2.156-1.109-4.672-2.484-5.984L305.906,331.188z M296.484,374.5h-80.953v-33.844h80.953V374.5z" style="fill: rgb(75, 75, 75);"></path>
	<path class="st0" d="M91.656,261.656c-23.203,0-42,18.813-42.016,42.031c0.016,23.188,18.813,41.984,42.016,42
		c23.188-0.016,42-18.813,42-42C133.656,280.469,114.844,261.656,91.656,261.656z M112.875,324.891
		c-5.453,5.438-12.906,8.797-21.219,8.797s-15.781-3.359-21.219-8.797c-5.438-5.453-8.781-12.922-8.797-21.203
		c0.016-8.313,3.359-15.781,8.797-21.234c5.438-5.438,12.906-8.797,21.219-8.797s15.75,3.359,21.219,8.797
		c5.438,5.453,8.781,12.922,8.781,21.234C121.656,311.969,118.313,319.438,112.875,324.891z" style="fill: rgb(75, 75, 75);"></path>
	<path class="st0" d="M420.344,261.656c-23.203,0-42,18.813-42,42.031c0,23.188,18.797,41.984,42,42
		c23.203-0.016,42.016-18.813,42.031-42C462.359,280.469,443.563,261.656,420.344,261.656z M441.563,324.891
		c-5.438,5.438-12.906,8.797-21.219,8.797c-8.297,0-15.75-3.359-21.219-8.797c-5.438-5.453-8.781-12.922-8.781-21.203
		c0-8.313,3.344-15.781,8.781-21.234c5.469-5.438,12.922-8.797,21.219-8.797c8.313,0,15.781,3.359,21.219,8.797
		c5.453,5.453,8.813,12.922,8.813,21.234C450.375,311.969,447.016,319.438,441.563,324.891z" style="fill: rgb(75, 75, 75);"></path>
</g>
</svg>
