<!--?xml version="1.0" encoding="utf-8"?-->
<!-- Generator: Adobe Illustrator 15.1.0, SVG Export Plug-In . SVG Version: 6.00 Build 0)  -->

<svg version="1.1" id="_x32_" xmlns="http://www.w3.org/2000/svg" xmlns:xlink="http://www.w3.org/1999/xlink" x="0px" y="0px" width="512px" height="512px" viewBox="0 0 512 512" style="width: 256px; height: 256px; opacity: 1;" xml:space="preserve">
<style type="text/css">

	.st0{fill:#4B4B4B;}

</style>
<g>
	<path class="st0" d="M34.313,203.5c2.297-5.031,6.703-13.297,14.422-27.813c3.547-6.688,7.516-14.063,11.578-21.625H24.719
		C11.078,154.063,0,165.109,0,178.781C0,192.438,11.078,203.5,24.719,203.5H34.313z" style="fill: rgb(75, 75, 75);"></path>
	<path class="st0" d="M487.281,154.063h-35.594c4.078,7.563,8.031,14.938,11.578,21.625c7.719,14.516,12.109,22.781,14.422,27.813
		h9.594c13.641,0,24.719-11.063,24.719-24.719C512,165.109,500.922,154.063,487.281,154.063z" style="fill: rgb(75, 75, 75);"></path>
	<path class="st0" d="M39.391,417.781c0,18.406,14.938,33.328,33.328,33.328c18.406,0,33.313-14.922,33.313-33.328v-31.516H39.391
		V417.781z" style="fill: rgb(75, 75, 75);"></path>
	<path class="st0" d="M405.938,417.781c0,18.406,14.938,33.328,33.344,33.328s33.328-14.922,33.328-33.328v-31.516h-66.672V417.781z
		" style="fill: rgb(75, 75, 75);"></path>
	<path class="st0" d="M467.875,209.688c1.688,0.5-61.688-115.813-64.719-122.094c-8-16.656-27.781-26.703-47.063-26.703
		c-22.281,0-84.344,0-84.344,0s-93.563,0-115.859,0c-19.297,0-39.031,10.047-47.063,26.703
		c-3.031,6.281-66.375,122.594-64.703,122.094c0,0-20.5,20.453-22.063,22.094c-8.625,9.266-8,17.281-8,25.313c0,0,0,75.281,0,92.563
		c0,17.266,3.078,26.719,23.438,26.719h437c20.359,0,23.453-9.453,23.453-26.719c0-17.281,0-92.563,0-92.563
		c0-8.031,0.609-16.047-8.047-25.313C488.406,230.141,467.875,209.688,467.875,209.688z M96.563,174.016
		c0,0,40.703-73.313,43.109-78.109c4.109-8.188,15.828-14.125,27.813-14.125h177.031c12,0,23.703,5.938,27.813,14.125
		c2.422,4.797,43.125,78.109,43.125,78.109c3.75,6.75,0.438,19.313-10.672,19.313H107.219
		C96.109,193.328,92.813,180.766,96.563,174.016z M91.125,337.063c-20.656,0-37.406-16.734-37.406-37.391
		c0-20.672,16.75-37.406,37.406-37.406s37.391,16.734,37.391,37.406C128.516,320.328,111.781,337.063,91.125,337.063z
		 M312.781,347.172c0,2.734-2.219,4.953-4.938,4.953H204.172c-2.734,0-4.953-2.219-4.953-4.953V301.5
		c0-2.703,2.219-4.906,4.953-4.906h103.672c2.719,0,4.938,2.203,4.938,4.906V347.172z M420.875,337.063
		c-20.656,0-37.422-16.734-37.422-37.391c0-20.672,16.766-37.406,37.422-37.406s37.406,16.75,37.406,37.406
		S441.531,337.063,420.875,337.063z" style="fill: rgb(75, 75, 75);"></path>
</g>
</svg>
