<?xml version="1.0" encoding="UTF-8" standalone="no"?>
<!-- Created with Inkscape (http://www.inkscape.org/) -->

<svg
   xmlns:dc="http://purl.org/dc/elements/1.1/"
   xmlns:cc="http://creativecommons.org/ns#"
   xmlns:rdf="http://www.w3.org/1999/02/22-rdf-syntax-ns#"
   xmlns:svg="http://www.w3.org/2000/svg"
   xmlns="http://www.w3.org/2000/svg"
   xmlns:sodipodi="http://sodipodi.sourceforge.net/DTD/sodipodi-0.dtd"
   xmlns:inkscape="http://www.inkscape.org/namespaces/inkscape"
   version="1.0"
   width="900"
   height="600"
   id="svg2"
   inkscape:version="0.48.4 r9939"
   sodipodi:docname="Flag_of_Toyooka,_Hyogo.svg">
  <metadata
     id="metadata8">
    <rdf:RDF>
      <cc:Work
         rdf:about="">
        <dc:format>image/svg+xml</dc:format>
        <dc:type
           rdf:resource="http://purl.org/dc/dcmitype/StillImage" />
      </cc:Work>
    </rdf:RDF>
  </metadata>
  <sodipodi:namedview
     pagecolor="#ffffff"
     bordercolor="#666666"
     borderopacity="1"
     objecttolerance="10"
     gridtolerance="10"
     guidetolerance="10"
     inkscape:pageopacity="0"
     inkscape:pageshadow="2"
     inkscape:window-width="1536"
     inkscape:window-height="801"
     id="namedview6"
     showgrid="false"
     inkscape:zoom="0.39333333"
     inkscape:cx="-36.864407"
     inkscape:cy="300"
     inkscape:window-x="-8"
     inkscape:window-y="1016"
     inkscape:window-maximized="1"
     inkscape:current-layer="svg2" />
  <defs
     id="defs5" />
  <rect
     width="900"
     height="600"
     x="0"
     y="0"
     id="rect2407"
     style="fill:#ffffff;stroke:none" />
  <path
     d="M 450,100 C 448.65131,100 447.31111,100.03588 445.96875,100.0625 C 445.70321,100.32117 411,134.21381 411,196.5625 C 411,263.68645 452,301 452,301 C 452,301 368.5,270.53048 368.5,168 C 368.5,140.40245 377,114 377,114 L 377.03125,113.75 C 372.28815,115.61131 367.62121,117.63848 363.0625,119.84375 L 363.0625,120.0625 C 363.06249,120.0625 355.5,145.12762 355.5,172 C 355.5,268.82847 440.5,301.5 440.5,301.5 C 440.5,301.5 323.27389,293.63459 319.03125,149.03125 L 319.03125,148.875 C 314.14728,153.11153 309.4834,157.59665 305.03125,162.28125 C 308.32729,259.68015 379.38683,290.87527 408,299 C 371.88564,299 296.96016,270.02439 286,188 L 285.4375,186.375 C 263.0987,218.65458 250,257.80014 250,300 C 250,355.13642 272.34221,405.09121 308.46875,441.28125 L 308.96875,441 C 308.96876,441.00001 295.5,422.75095 295.5,390 C 295.5,338.93196 327.75,310.25 354,289.5 L 362.5,293.5 C 362.5,293.5 314.40625,332.78174 314.40625,373.375 C 314.40626,408.90149 345.30973,436 382.625,436 C 439.33791,436 520.40625,363 563.90625,284 C 549.40625,379.5 484.63373,482.5 386.34375,482.5 C 372.45469,482.5 365,481 365,481 L 364.96875,481.03125 C 372.28734,484.47738 379.85561,487.47724 387.625,490.03125 L 397.03125,490.03125 C 397.03124,490.03126 547.19491,497.54194 587.5,269.5 C 587.5,269.5 592.9375,289.33659 592.9375,316.5625 C 592.9375,448.59573 481.43658,497 420.96875,497 L 420.625,497.84375 C 430.2117,499.2598 440.02117,500 450,500 C 451.69364,500 453.3789,499.97943 455.0625,499.9375 C 455.09322,499.93376 455.12553,499.94125 455.15625,499.9375 C 586.1677,483.94322 635.08117,345.27316 609.9375,257.96875 C 655.67849,339.17554 615.73438,410.57983 610.5625,419.1875 C 635.33003,385.89069 650,344.65706 650,300 C 650,263.49005 640.20386,229.25318 623.09375,199.78125 L 622.03125,200.03125 C 622.03123,200.03126 467.35962,235.7868 428.46875,257 L 425,248 C 485.31564,222.42757 612.02338,193.80534 618.9375,192.96875 C 583.45397,137.09842 521.04089,99.999999 450,100 z"
     id="path2384"
     style="fill:#0093d0;stroke:none;fill-opacity:1" />
</svg>
