<!--?xml version="1.0" encoding="utf-8"?-->
<!-- Generator: Adobe Illustrator 15.1.0, SVG Export Plug-In . SVG Version: 6.00 Build 0)  -->

<svg version="1.1" id="_x32_" xmlns="http://www.w3.org/2000/svg" xmlns:xlink="http://www.w3.org/1999/xlink" x="0px" y="0px" width="512px" height="512px" viewBox="0 0 512 512" style="width: 256px; height: 256px; opacity: 1;" xml:space="preserve">
<style type="text/css">

	.st0{fill:#4B4B4B;}

</style>
<g>
	<path class="st0" d="M62.234,477.438c0,9.5,7.703,17.219,17.203,17.219h47.547c9.5,0,17.203-7.719,17.203-17.219v-35.406H62.234
		V477.438z" style="fill: rgb(75, 75, 75);"></path>
	<path class="st0" d="M367.813,477.438c0,9.5,7.703,17.219,17.219,17.219h47.531c9.5,0,17.203-7.719,17.203-17.219v-35.406h-81.953
		V477.438z" style="fill: rgb(75, 75, 75);"></path>
	<path class="st0" d="M456.531,260.375l-24.172-87.563c-8.172-29.656-28.172-53.594-54.031-67.297V45.313
		c0.016-7.688-3.141-14.75-8.188-19.766c-5.016-5.047-12.078-8.203-19.766-8.203h-188.75c-7.688,0-14.734,3.156-19.766,8.203
		c-5.047,5.016-8.203,12.078-8.172,19.766v60.203c-25.875,13.703-45.844,37.641-54.047,67.297l-24.172,87.563
		C23.031,272.813,0,304.219,0,341.031c0,47.688,38.672,86.344,86.359,86.344h90.75c1.203,4.906,3.703,9.313,7.141,12.719
		c4.844,4.875,11.688,7.938,19.109,7.906h105.281c7.422,0.031,14.266-3.031,19.109-7.906c3.438-3.406,5.938-7.813,7.141-12.719
		h90.75c47.688,0,86.359-38.656,86.359-86.344C512,304.219,488.969,272.828,456.531,260.375z M157.406,45.313
		c0.016-1.203,0.469-2.188,1.25-2.984c0.797-0.766,1.781-1.219,2.969-1.234h188.75c1.188,0.016,2.172,0.469,2.969,1.234
		c0.797,0.797,1.25,1.781,1.25,2.984v50.969c-8.781-2.25-17.906-3.469-27.297-3.469H184.703c-9.359,0-18.516,1.219-27.297,3.469
		V45.313z M86.359,378.203c-20.531,0-37.172-16.656-37.172-37.172c0-20.531,16.641-37.188,37.172-37.188
		c20.516,0,37.156,16.656,37.156,37.188C123.516,361.547,106.875,378.203,86.359,378.203z M311.953,420.969
		c-0.016,0.953-0.359,1.703-0.984,2.344c-0.625,0.594-1.375,0.969-2.328,0.969H203.359c-0.953,0-1.703-0.375-2.328-0.969
		c-0.625-0.641-0.969-1.391-0.984-2.344v-48.594c0.016-0.953,0.359-1.703,0.984-2.344c0.625-0.625,1.375-0.969,2.328-0.969h105.281
		c0.953,0,1.703,0.344,2.328,0.969c0.625,0.641,0.969,1.391,0.984,2.344V420.969z M110.281,234.969c-3,0-5.813-1.406-7.641-3.797
		s-2.422-5.484-1.625-8.375l11.313-40.953c8.953-32.469,38.719-55.125,72.375-55.125h142.594c33.656,0,63.422,22.656,72.375,55.109
		l11.313,40.969c0.797,2.891,0.203,5.984-1.625,8.375c-1.813,2.391-4.641,3.797-7.641,3.797H110.281z M425.641,378.203
		c-20.531,0-37.156-16.656-37.156-37.172c0-20.531,16.625-37.188,37.156-37.188c20.547,0,37.172,16.656,37.172,37.188
		C462.813,361.547,446.188,378.203,425.641,378.203z" style="fill: rgb(75, 75, 75);"></path>
	<path class="st0" d="M199.328,61.234h5.609c0.188,0,0.297,0.078,0.297,0.266v21.125c0,2.109,1.516,3.5,3.547,3.5
		c2.109,0,3.625-1.391,3.625-3.5V61.5c0-0.188,0.094-0.266,0.281-0.266h5.609c2.203,0,3.609-1.203,3.609-2.922
		c0-1.75-1.406-2.953-3.609-2.953h-18.969c-2.188,0-3.594,1.203-3.594,2.953C195.734,60.031,197.141,61.234,199.328,61.234z" style="fill: rgb(75, 75, 75);"></path>
	<path class="st0" d="M230.438,86.125c1.563,0,2.844-0.844,3.375-2.313l1.313-3.75h11.844l1.359,3.75
		c0.547,1.469,1.813,2.313,3.359,2.313c1.813,0,3.469-1.203,3.469-3.094c0-0.438-0.094-0.891-0.25-1.25l-8.813-22.844
		c-0.938-2.406-2.438-3.844-4.969-3.844s-4,1.438-4.922,3.844l-8.984,22.844c-0.141,0.359-0.219,0.813-0.219,1.25
		C227,84.922,228.641,86.125,230.438,86.125z M241.016,63.781h0.141l3.813,10.688h-7.797L241.016,63.781z" style="fill: rgb(75, 75, 75);"></path>
	<path class="st0" d="M264.188,83.156c0,1.672,1.422,2.969,3.375,2.969c1.219,0,2.188-0.484,2.969-1.563l6.531-8.875h0.094
		l6.531,8.875c0.781,1.078,1.75,1.563,2.969,1.563c1.953,0,3.359-1.297,3.359-2.969c0-0.656-0.234-1.328-0.734-2l-8.125-10.953
		l7.563-10.125c0.469-0.688,0.719-1.359,0.719-2.016c0-1.688-1.406-2.969-3.375-2.969c-1.203,0-2.188,0.5-2.969,1.563l-5.938,8.063
		h-0.094l-5.938-8.063c-0.781-1.063-1.766-1.563-2.984-1.563c-1.953,0-3.359,1.281-3.359,2.969c0,0.656,0.234,1.328,0.719,2.016
		l7.516,10.125l-8.078,10.953C264.438,81.828,264.188,82.5,264.188,83.156z" style="fill: rgb(75, 75, 75);"></path>
	<path class="st0" d="M304.219,86.125c2.047,0,3.563-1.391,3.563-3.5V58.594c0-2.125-1.516-3.5-3.563-3.5
		c-2.094,0-3.594,1.375-3.594,3.5v24.031C300.625,84.734,302.125,86.125,304.219,86.125z" style="fill: rgb(75, 75, 75);"></path>
</g>
</svg>
