<!--?xml version="1.0" encoding="utf-8"?-->
<!-- Generator: Adobe Illustrator 18.1.1, SVG Export Plug-In . SVG Version: 6.00 Build 0)  -->

<svg version="1.1" id="_x32_" xmlns="http://www.w3.org/2000/svg" xmlns:xlink="http://www.w3.org/1999/xlink" x="0px" y="0px" viewBox="0 0 512 512" style="width: 256px; height: 256px; opacity: 1;" xml:space="preserve">
<style type="text/css">
	.st0{fill:#4B4B4B;}
</style>
<g>
	<path class="st0" d="M239.103,99.037c27.354,0,49.524-22.17,49.524-49.513C288.627,22.17,266.457,0,239.103,0
		C211.75,0,189.58,22.17,189.58,49.524C189.58,76.867,211.75,99.037,239.103,99.037z" style="fill: rgb(75, 75, 75);"></path>
	<path class="st0" d="M427.361,241.153l-32.838-49.377c-7.974-11.666-18.555-21.326-30.88-28.235l-64.396-36.065
		c-11.802-5.514-20.726-9.021-31.937-7.509l-30.812,4.185c-11.492,1.561-21.966,7.413-29.311,16.376l-58.651,62.42l-53.718,19.796
		c-10.174,3.75-15.639,14.805-12.422,25.164l0.252,0.795c3.16,10.183,13.653,16.201,24.039,13.808l43.778-10.107
		c10.919-2.519,21.288-7.015,30.57-13.275l30.445-20.473l10.756,81.74c0.785,5.998-0.427,12.083-3.44,17.335l-91.159,158.327
		c-6.502,11.279-2.655,25.697,8.595,32.266l0.784,0.456c10.648,6.201,24.272,3.207,31.326-6.889l101.895-145.75l30.872,61.625
		c2.286,4.554,5.309,8.692,8.953,12.248l68.486,66.964c8.643,8.44,22.315,8.818,31.394,0.862l1.095-0.95
		c4.651-4.079,7.48-9.844,7.848-16.016s-1.744-12.238-5.882-16.831l-57.827-64.416l-31.414-113.697l-0.116,0.097l-9.011-88.95
		l31.839,14.332L397.392,265c6.405,6.743,16.772,7.828,24.427,2.548l0.523-0.358C430.84,261.337,433.078,249.748,427.361,241.153z" style="fill: rgb(75, 75, 75);"></path>
</g>
</svg>
